<?xml version="1.0" encoding="utf-8"?>
<!-- Generator: Adobe Illustrator 16.0.0, SVG Export Plug-In . SVG Version: 6.00 Build 0)  -->
<!DOCTYPE svg PUBLIC "-//W3C//DTD SVG 1.1//EN" "http://www.w3.org/Graphics/SVG/1.1/DTD/svg11.dtd">
<svg version="1.1" xmlns="http://www.w3.org/2000/svg" xmlns:xlink="http://www.w3.org/1999/xlink" x="0px" y="0px"
	 width="374.443px" height="98.979px" viewBox="0 0 374.443 98.979" enable-background="new 0 0 374.443 98.979"
	 xml:space="preserve">
<g id="圖層_1">
</g>
<g id="紅球">
</g>
<g id="紅線背景">
</g>
<g id="圖層_2">
</g>
<g id="圖層_5">
	<g>
		<g>
			<path fill="#1785B0" d="M273.768,57.934c-0.203-0.037-0.416-0.014-0.619,0.01c-0.01,0.148-0.02,0.301-0.037,0.445
				c0.221,0.018,0.438,0.033,0.656-0.006l1.818-0.193v-0.059L273.768,57.934z"/>
			<path fill="#1785B0" d="M273.537,59.848c-0.336-0.08-0.674-0.066-1.01-0.016c-0.004,0.213-0.008,0.422-0.014,0.633
				c0.344,0.053,0.682,0.055,1.023-0.023l1.877-0.262v-0.076L273.537,59.848z"/>
			<path fill="#1785B0" d="M273.332,61.832c-0.381-0.078-0.766-0.088-1.148-0.035c0.002,0.225,0.012,0.443,0.012,0.668
				c0.377,0.053,0.76,0.039,1.137-0.033l2.082-0.266v-0.074L273.332,61.832z"/>
			<path fill="#1785B0" d="M272.918,63.818c-0.324-0.068-0.652-0.104-0.975-0.068c-0.008,0.242-0.012,0.488-0.02,0.73
				c0.328,0.037,0.662,0.004,0.994-0.072l1.969-0.258v-0.074L272.918,63.818z"/>
			<path fill="#1785B0" d="M272.525,65.805c-0.229-0.055-0.451-0.061-0.676-0.055c-0.018,0.242-0.039,0.473-0.061,0.709
				c0.246,0.016,0.492,0,0.736-0.063l1.754-0.256v-0.076L272.525,65.805z"/>
			<path fill="#1785B0" d="M271.77,68.406c-0.148-0.035-0.301-0.014-0.449,0.008c-0.01,0.148-0.018,0.303-0.029,0.447
				c0.162,0.018,0.32,0.031,0.479-0.008l1.326-0.193v-0.057L271.77,68.406z"/>
			<path fill="#1785B0" d="M271.453,70.566c-0.336-0.08-0.676-0.068-1.012-0.016c-0.002,0.211-0.006,0.422-0.012,0.635
				c0.342,0.049,0.68,0.055,1.023-0.023l1.877-0.262v-0.076L271.453,70.566z"/>
			<path fill="#1785B0" d="M271.248,72.551c-0.381-0.078-0.768-0.086-1.148-0.035c0.002,0.225,0.01,0.445,0.01,0.67
				c0.381,0.051,0.76,0.037,1.139-0.037l2.082-0.262v-0.074L271.248,72.551z"/>
			<path fill="#1785B0" d="M270.834,74.537c-0.324-0.064-0.652-0.102-0.975-0.064c-0.01,0.238-0.012,0.49-0.021,0.729
				c0.33,0.035,0.662,0.006,0.996-0.072l1.967-0.258v-0.074L270.834,74.537z"/>
			<path fill="#1785B0" d="M270.439,76.523c-0.227-0.055-0.451-0.063-0.676-0.055c-0.018,0.244-0.039,0.473-0.059,0.709
				c0.246,0.014,0.49,0,0.734-0.063l1.756-0.256v-0.078L270.439,76.523z"/>
			<path fill="#1785B0" d="M269.5,79.281c-0.244-0.033-0.492-0.014-0.738,0.01c-0.012,0.15-0.027,0.303-0.045,0.449
				c0.264,0.014,0.523,0.029,0.783-0.01l2.168-0.193v-0.059L269.5,79.281z"/>
			<path fill="#1785B0" d="M269.123,81.195c-0.336-0.08-0.674-0.068-1.01-0.014c-0.002,0.211-0.006,0.42-0.012,0.631
				c0.342,0.049,0.68,0.053,1.021-0.021L271,81.529v-0.076L269.123,81.195z"/>
			<path fill="#1785B0" d="M268.92,83.178c-0.381-0.076-0.768-0.084-1.15-0.033c0.002,0.225,0.012,0.443,0.012,0.67
				c0.379,0.051,0.76,0.035,1.139-0.039l2.08-0.26v-0.074L268.92,83.178z"/>
			<path fill="#1785B0" d="M268.506,85.166c-0.324-0.07-0.652-0.102-0.977-0.07c-0.008,0.248-0.01,0.496-0.02,0.732
				c0.33,0.035,0.662,0.008,0.996-0.07l1.967-0.258v-0.076L268.506,85.166z"/>
			<path fill="#1785B0" d="M268.283,87.16c-0.285-0.045-0.564-0.045-0.848-0.029c-0.012,0.24-0.029,0.475-0.053,0.711
				c0.307,0,0.613-0.016,0.918-0.088l2.172-0.314v-0.08L268.283,87.16z"/>
			<path fill="#1785B0" d="M267.676,89.982c-0.244-0.037-0.496-0.016-0.744,0.008c-0.016,0.15-0.027,0.303-0.047,0.449
				c0.266,0.016,0.529,0.031,0.791-0.01l2.188-0.193v-0.059L267.676,89.982z"/>
			<g>
				<path fill="#1785B0" d="M270.771,94.588c-0.262,0-0.512-0.121-0.676-0.332c-0.146-0.186-1.494-1.785-3.188-0.611
					c-0.287,0.199-0.66,0.205-0.951,0.018c-0.293-0.189-0.443-0.533-0.379-0.875l10.213-56.299c0.018-0.105,2.1-10.613,17.049-7.895
					c0.471,0.082,0.777,0.531,0.693,0.99c-0.084,0.473-0.531,0.783-0.998,0.697c-13.283-2.408-14.992,6.146-15.059,6.516
					l-9.93,54.748c1.014-0.176,1.93,0.109,2.65,0.553l9.936-54.77c0.012-0.07,0.328-1.73,2.061-3.086
					c2.184-1.707,5.506-2.172,9.873-1.373c0.467,0.08,0.773,0.527,0.689,0.992c-0.086,0.469-0.523,0.777-0.996,0.693
					c-8.877-1.615-9.904,2.895-9.939,3.088l-10.203,56.238c-0.059,0.334-0.311,0.602-0.641,0.682
					C270.906,94.58,270.84,94.588,270.771,94.588"/>
				<path fill="#1785B0" d="M294.977,98.979c-0.279,0-0.547-0.139-0.711-0.377c-0.211-0.305-1.377-1.791-3.148-0.564
					c-0.283,0.197-0.66,0.201-0.953,0.014c-0.291-0.188-0.439-0.533-0.379-0.869l10.199-56.25c0.029-0.188,0.646-4.768-8.225-6.377
					c-0.465-0.086-0.775-0.533-0.686-1c0.078-0.467,0.529-0.773,0.992-0.688c4.367,0.787,7.313,2.391,8.756,4.758
					c1.145,1.873,0.859,3.543,0.848,3.609l-9.912,54.672c0.439-0.092,0.883-0.094,1.328-0.012c0.512,0.098,0.959,0.299,1.33,0.535
					l9.924-54.76c0.064-0.361,1.398-8.992-11.805-11.389c-0.465-0.086-0.775-0.531-0.691-0.998c0.086-0.463,0.531-0.775,0.998-0.689
					c14.943,2.713,13.205,13.277,13.188,13.383l-10.207,56.299c-0.061,0.338-0.328,0.613-0.664,0.686
					C295.098,98.975,295.037,98.979,294.977,98.979"/>
				<path fill="#1785B0" d="M275.174,92.793c-0.049,0-0.104-0.006-0.154-0.014c-0.465-0.086-0.773-0.531-0.691-0.998l9.24-50.939
					c0.088-0.467,0.535-0.777,0.998-0.693c0.467,0.088,0.777,0.537,0.693,0.998l-9.242,50.943
					C275.941,92.502,275.584,92.793,275.174,92.793"/>
				<path fill="#1785B0" d="M279.164,93.514c-0.053,0-0.104-0.002-0.154-0.012c-0.465-0.086-0.773-0.533-0.691-0.998l9.24-50.941
					c0.086-0.465,0.533-0.775,0.996-0.691c0.463,0.088,0.775,0.533,0.693,1l-9.24,50.939
					C279.932,93.225,279.57,93.514,279.164,93.514"/>
				<path fill="#1785B0" d="M283.15,94.238c-0.053,0-0.102-0.004-0.156-0.012c-0.465-0.086-0.773-0.533-0.689-0.998l9.238-50.938
					c0.09-0.469,0.535-0.779,0.998-0.695c0.467,0.086,0.775,0.535,0.691,0.998l-9.236,50.939
					C283.92,93.949,283.557,94.238,283.15,94.238"/>
				<path fill="#1785B0" d="M287.139,94.961c-0.051,0-0.102-0.004-0.154-0.012c-0.467-0.084-0.775-0.533-0.691-0.998l9.238-50.941
					c0.084-0.465,0.531-0.775,0.996-0.688c0.467,0.08,0.775,0.527,0.691,0.996l-9.236,50.939
					C287.908,94.674,287.547,94.961,287.139,94.961"/>
				<path fill="#1785B0" d="M373.586,84.467c-0.473,0-0.857-0.383-0.857-0.857c0-13.436-8.729-13.656-9.1-13.658H307.99
					c0.357,0.965,0.23,1.918-0.072,2.709h55.662c0.268,0,6.525,0.123,6.525,10.949c0,0.475-0.387,0.857-0.861,0.857
					c-0.471,0-0.855-0.383-0.855-0.857c0-9.129-4.76-9.234-4.809-9.234h-57.164c-0.338,0-0.643-0.201-0.781-0.51
					c-0.141-0.309-0.082-0.672,0.145-0.924c0.152-0.176,1.488-1.781,0.031-3.242c-0.246-0.244-0.318-0.615-0.188-0.934
					c0.133-0.32,0.445-0.527,0.793-0.527h57.213c0.109,0,10.814,0.174,10.814,15.371C374.443,84.084,374.061,84.467,373.586,84.467"
					/>
				<path fill="#1785B0" d="M363.629,98.979h-57.213c-0.348,0-0.662-0.211-0.793-0.533c-0.131-0.326-0.057-0.693,0.195-0.939
					c0.264-0.264,1.516-1.678-0.008-3.203c-0.246-0.244-0.318-0.611-0.186-0.93c0.131-0.324,0.443-0.531,0.791-0.531h57.164
					c0.188-0.004,4.809-0.213,4.809-9.232c0-0.471,0.385-0.859,0.855-0.859c0.475,0,0.859,0.389,0.859,0.859
					c0,10.822-6.256,10.947-6.523,10.947h-55.559c0.166,0.416,0.25,0.852,0.246,1.299c0,0.529-0.125,1.002-0.287,1.406h55.648
					c0.371-0.002,9.1-0.223,9.1-13.652c0-0.471,0.385-0.859,0.857-0.859c0.475,0,0.857,0.389,0.857,0.859
					C374.443,98.805,363.738,98.979,363.629,98.979"/>
				<path fill="#1785B0" d="M360.74,78.389h-51.771c-0.475,0-0.859-0.385-0.859-0.859c0-0.473,0.385-0.857,0.859-0.857h51.771
					c0.473,0,0.855,0.385,0.855,0.857C361.596,78.004,361.213,78.389,360.74,78.389"/>
				<path fill="#1785B0" d="M360.74,82.438h-51.771c-0.475,0-0.859-0.381-0.859-0.855c0-0.473,0.385-0.857,0.859-0.857h51.771
					c0.473,0,0.855,0.385,0.855,0.857C361.596,82.057,361.213,82.438,360.74,82.438"/>
				<path fill="#1785B0" d="M360.74,86.49h-51.771c-0.475,0-0.859-0.381-0.859-0.857c0-0.473,0.385-0.857,0.859-0.857h51.771
					c0.473,0,0.855,0.385,0.855,0.857C361.596,86.109,361.213,86.49,360.74,86.49"/>
				<path fill="#1785B0" d="M360.74,90.545h-51.771c-0.475,0-0.859-0.387-0.859-0.857c0-0.475,0.385-0.857,0.859-0.857h51.771
					c0.473,0,0.855,0.383,0.855,0.857C361.596,90.158,361.213,90.545,360.74,90.545"/>
				<path fill="#1785B0" d="M373.586,55.232c-0.473,0-0.857-0.385-0.857-0.857c0-13.504-8.727-13.654-9.1-13.654H307.99
					c0.359,0.961,0.23,1.916-0.072,2.707h55.662c0.268,0,6.525,0.121,6.525,10.947c0,0.473-0.387,0.857-0.861,0.857
					c-0.471,0-0.855-0.385-0.855-0.857c0-9.127-4.76-9.234-4.809-9.234h-57.164c-0.338,0-0.643-0.201-0.781-0.508
					c-0.141-0.313-0.082-0.67,0.145-0.926c0.152-0.172,1.488-1.783,0.031-3.242c-0.246-0.244-0.318-0.613-0.188-0.936
					c0.133-0.318,0.445-0.527,0.793-0.527h57.213c0.109,0,10.814,0.174,10.814,15.373C374.443,54.848,374.061,55.232,373.586,55.232
					"/>
				<path fill="#1785B0" d="M363.629,69.742h-57.213c-0.348,0-0.662-0.211-0.793-0.531c-0.131-0.322-0.057-0.695,0.195-0.939
					c0.264-0.262,1.516-1.676-0.008-3.199c-0.246-0.246-0.318-0.617-0.186-0.936c0.131-0.32,0.443-0.531,0.791-0.531h57.164
					c0.188-0.002,4.809-0.207,4.809-9.23c0-0.475,0.385-0.859,0.855-0.859c0.475,0,0.859,0.385,0.859,0.859
					c0,10.82-6.256,10.947-6.523,10.947h-55.559c0.166,0.42,0.25,0.852,0.246,1.303c0,0.525-0.125,0.998-0.287,1.404h55.648
					c0.371-0.002,9.1-0.227,9.1-13.654c0-0.475,0.385-0.859,0.857-0.859c0.475,0,0.857,0.385,0.857,0.859
					C374.443,69.57,363.738,69.742,363.629,69.742"/>
				<path fill="#1785B0" d="M360.74,49.152h-51.771c-0.475,0-0.859-0.385-0.859-0.857s0.385-0.859,0.859-0.859h51.771
					c0.473,0,0.855,0.387,0.855,0.859S361.213,49.152,360.74,49.152"/>
				<path fill="#1785B0" d="M360.74,53.207h-51.771c-0.475,0-0.859-0.387-0.859-0.857c0-0.477,0.385-0.859,0.859-0.859h51.771
					c0.473,0,0.855,0.383,0.855,0.859C361.596,52.82,361.213,53.207,360.74,53.207"/>
				<path fill="#1785B0" d="M360.74,57.26h-51.771c-0.475,0-0.859-0.385-0.859-0.859c0-0.473,0.385-0.857,0.859-0.857h51.771
					c0.473,0,0.855,0.385,0.855,0.857C361.596,56.875,361.213,57.26,360.74,57.26"/>
				<path fill="#1785B0" d="M360.74,61.313h-51.771c-0.475,0-0.859-0.385-0.859-0.859c0-0.473,0.385-0.857,0.859-0.857h51.771
					c0.473,0,0.855,0.385,0.855,0.857C361.596,60.928,361.213,61.313,360.74,61.313"/>
				<path fill="#1785B0" d="M277.906,36.607c-0.213-0.039-0.426-0.014-0.643,0.008c-0.01,0.148-0.023,0.301-0.037,0.447
					c0.227,0.018,0.455,0.031,0.68-0.01l1.887-0.193v-0.057L277.906,36.607z"/>
				<path fill="#1785B0" d="M277.678,38.52c-0.336-0.08-0.674-0.07-1.01-0.016c-0.004,0.211-0.006,0.422-0.012,0.633
					c0.342,0.053,0.682,0.055,1.021-0.021l1.877-0.262v-0.078L277.678,38.52z"/>
				<path fill="#1785B0" d="M278.602,34.201c-0.338-0.082-0.676-0.066-1.012-0.016c-0.004,0.213-0.006,0.424-0.012,0.633
					c0.342,0.051,0.68,0.055,1.023-0.023l1.875-0.262v-0.076L278.602,34.201z"/>
				<path fill="#1785B0" d="M280.049,32.176c-0.336-0.084-0.674-0.07-1.01-0.016c-0.002,0.211-0.006,0.424-0.012,0.631
					c0.344,0.049,0.68,0.057,1.021-0.021l1.879-0.262V32.43L280.049,32.176z"/>
				<path fill="#1785B0" d="M282.564,30.602c-0.338-0.08-0.676-0.07-1.01-0.016c-0.006,0.211-0.008,0.422-0.014,0.633
					c0.344,0.053,0.682,0.055,1.023-0.023l1.877-0.262v-0.076L282.564,30.602z"/>
				<path fill="#1785B0" d="M277.475,40.504c-0.381-0.078-0.768-0.088-1.15-0.035c0.004,0.223,0.012,0.445,0.012,0.668
					c0.381,0.053,0.76,0.037,1.139-0.035l2.08-0.262v-0.076L277.475,40.504z"/>
				<path fill="#1785B0" d="M277.059,42.488c-0.322-0.066-0.65-0.104-0.975-0.066c-0.006,0.24-0.01,0.492-0.02,0.729
					c0.33,0.037,0.664,0.008,0.994-0.068l1.969-0.26v-0.074L277.059,42.488z"/>
				<path fill="#1785B0" d="M276.668,44.475c-0.229-0.055-0.455-0.059-0.68-0.055c-0.016,0.246-0.037,0.477-0.059,0.711
					c0.248,0.014,0.49,0,0.738-0.063l1.752-0.256v-0.078L276.668,44.475z"/>
				<path fill="#1785B0" d="M275.727,47.236c-0.246-0.039-0.492-0.016-0.74,0.008c-0.01,0.148-0.025,0.301-0.043,0.445
					c0.262,0.02,0.523,0.031,0.783-0.008l2.168-0.191V47.43L275.727,47.236z"/>
				<path fill="#1785B0" d="M275.35,49.148c-0.336-0.08-0.676-0.068-1.012-0.016c-0.002,0.211-0.004,0.422-0.01,0.633
					c0.342,0.053,0.68,0.055,1.021-0.023l1.877-0.26v-0.078L275.35,49.148z"/>
				<path fill="#1785B0" d="M275.146,51.131c-0.383-0.078-0.77-0.086-1.152-0.035c0.004,0.227,0.014,0.445,0.014,0.67
					c0.379,0.053,0.76,0.035,1.139-0.035l2.08-0.264v-0.074L275.146,51.131z"/>
				<path fill="#1785B0" d="M274.732,53.117c-0.324-0.066-0.652-0.102-0.977-0.066c-0.008,0.24-0.01,0.488-0.02,0.729
					c0.33,0.035,0.662,0.004,0.996-0.068l1.965-0.262v-0.074L274.732,53.117z"/>
				<path fill="#1785B0" d="M274.338,55.105c-0.229-0.057-0.451-0.061-0.678-0.057c-0.016,0.244-0.037,0.475-0.057,0.711
					c0.244,0.012,0.49,0,0.734-0.063l1.754-0.256v-0.078L274.338,55.105z"/>
				<path fill="#1785B0" d="M301.654,41.16c-0.127-0.037-0.256-0.014-0.381,0.01c-0.01,0.146-0.014,0.301-0.025,0.445
					c0.137,0.018,0.273,0.033,0.406-0.008l1.127-0.193v-0.057L301.654,41.16z"/>
				<path fill="#1785B0" d="M301.654,38.775c-0.127-0.037-0.256-0.016-0.381,0.006c-0.01,0.148-0.014,0.301-0.025,0.449
					c0.137,0.018,0.273,0.031,0.406-0.008l1.127-0.191v-0.059L301.654,38.775z"/>
				<path fill="#1785B0" d="M300.527,36.852c-0.17-0.039-0.34-0.016-0.508,0.008c-0.01,0.148-0.02,0.301-0.031,0.447
					c0.178,0.018,0.355,0.031,0.539-0.008l1.486-0.193v-0.059L300.527,36.852z"/>
				<path fill="#1785B0" d="M300.869,42.826c-0.289-0.08-0.576-0.068-0.859-0.014c0,0.209-0.006,0.422-0.012,0.631
					c0.293,0.049,0.578,0.053,0.871-0.021l1.594-0.264v-0.076L300.869,42.826z"/>
				<path fill="#1785B0" d="M300.693,44.809c-0.326-0.076-0.652-0.084-0.977-0.035c0.004,0.227,0.008,0.445,0.008,0.672
					c0.324,0.051,0.648,0.033,0.969-0.037l1.77-0.264v-0.072L300.693,44.809z"/>
				<path fill="#1785B0" d="M300.342,46.797c-0.279-0.07-0.553-0.105-0.83-0.07c-0.008,0.242-0.008,0.492-0.018,0.729
					c0.283,0.039,0.564,0.006,0.848-0.066l1.676-0.26v-0.074L300.342,46.797z"/>
				<path fill="#1785B0" d="M300.01,48.781c-0.195-0.053-0.387-0.059-0.582-0.053c-0.012,0.242-0.029,0.471-0.047,0.709
					c0.207,0.014,0.414,0,0.629-0.063l1.486-0.256v-0.078L300.01,48.781z"/>
				<path fill="#1785B0" d="M299.326,51.541c-0.246-0.037-0.492-0.014-0.738,0.01c-0.016,0.146-0.027,0.303-0.047,0.447
					c0.266,0.018,0.525,0.029,0.785-0.01l2.174-0.193v-0.057L299.326,51.541z"/>
				<path fill="#1785B0" d="M299.104,53.455c-0.357-0.082-0.717-0.07-1.072-0.018c-0.004,0.213-0.008,0.424-0.012,0.635
					c0.361,0.049,0.721,0.055,1.084-0.021l1.99-0.264v-0.076L299.104,53.455z"/>
				<path fill="#1785B0" d="M298.715,55.439c-0.326-0.08-0.654-0.086-0.979-0.037c0.004,0.227,0.01,0.445,0.01,0.67
					c0.322,0.053,0.648,0.037,0.969-0.035l1.768-0.266v-0.072L298.715,55.439z"/>
				<path fill="#1785B0" d="M298.359,57.426c-0.275-0.07-0.551-0.105-0.828-0.07c-0.008,0.242-0.008,0.494-0.018,0.73
					c0.283,0.037,0.564,0.008,0.846-0.068l1.676-0.26v-0.074L298.359,57.426z"/>
				<path fill="#1785B0" d="M298.025,59.412c-0.191-0.057-0.383-0.061-0.574-0.057c-0.018,0.244-0.031,0.477-0.049,0.711
					c0.209,0.014,0.418,0,0.623-0.063l1.49-0.256V59.67L298.025,59.412z"/>
				<path fill="#1785B0" d="M297.541,62.24c-0.174-0.037-0.352-0.014-0.523,0.01c-0.012,0.148-0.021,0.303-0.033,0.447
					c0.188,0.016,0.373,0.031,0.557-0.01l1.545-0.193v-0.057L297.541,62.24z"/>
				<path fill="#1785B0" d="M297.346,64.154c-0.287-0.08-0.572-0.068-0.857-0.016c-0.002,0.213-0.002,0.422-0.01,0.635
					c0.289,0.049,0.578,0.053,0.867-0.025l1.596-0.26v-0.08L297.346,64.154z"/>
				<path fill="#1785B0" d="M297.174,66.139c-0.328-0.078-0.656-0.088-0.979-0.035c0.002,0.223,0.01,0.443,0.01,0.67
					c0.322,0.051,0.646,0.033,0.969-0.037l1.768-0.262v-0.076L297.174,66.139z"/>
				<path fill="#1785B0" d="M296.822,68.123c-0.279-0.066-0.557-0.102-0.834-0.066c-0.006,0.24-0.01,0.492-0.016,0.729
					c0.285,0.035,0.563,0.01,0.85-0.068l1.672-0.26v-0.074L296.822,68.123z"/>
				<path fill="#1785B0" d="M296.486,70.111c-0.193-0.057-0.383-0.061-0.58-0.057c-0.012,0.244-0.027,0.479-0.045,0.713
					c0.205,0.014,0.418,0,0.625-0.064l1.486-0.256v-0.078L296.486,70.111z"/>
				<path fill="#1785B0" d="M296.059,72.713c-0.184-0.035-0.373-0.014-0.557,0.008c-0.01,0.15-0.025,0.305-0.037,0.447
					c0.199,0.018,0.398,0.031,0.594-0.006l1.648-0.195V72.91L296.059,72.713z"/>
				<path fill="#1785B0" d="M295.574,74.873c-0.285-0.08-0.574-0.068-0.859-0.016c-0.002,0.213-0.004,0.422-0.006,0.635
					c0.287,0.053,0.572,0.055,0.865-0.023l1.594-0.262v-0.078L295.574,74.873z"/>
				<path fill="#1785B0" d="M295.4,76.857c-0.328-0.078-0.654-0.088-0.977-0.035c0.002,0.227,0.006,0.445,0.006,0.67
					c0.324,0.051,0.65,0.037,0.971-0.035l1.768-0.264v-0.074L295.4,76.857z"/>
				<path fill="#1785B0" d="M295.047,78.844c-0.277-0.066-0.553-0.102-0.832-0.066c-0.004,0.244-0.008,0.49-0.016,0.729
					c0.283,0.035,0.564,0.008,0.848-0.068l1.674-0.26v-0.074L295.047,78.844z"/>
				<path fill="#1785B0" d="M294.713,80.83c-0.191-0.053-0.383-0.063-0.576-0.053c-0.016,0.24-0.031,0.471-0.051,0.709
					c0.207,0.012,0.416,0,0.627-0.063l1.492-0.258v-0.078L294.713,80.83z"/>
				<path fill="#1785B0" d="M293.912,83.588c-0.207-0.037-0.42-0.012-0.625,0.01c-0.012,0.148-0.025,0.303-0.039,0.449
					c0.223,0.016,0.441,0.027,0.664-0.008l1.844-0.195v-0.059L293.912,83.588z"/>
				<path fill="#1785B0" d="M293.594,85.502c-0.287-0.08-0.574-0.068-0.857-0.016c-0.004,0.213-0.006,0.424-0.008,0.635
					c0.287,0.047,0.574,0.055,0.865-0.023l1.594-0.262v-0.078L293.594,85.502z"/>
				<path fill="#1785B0" d="M293.42,87.486c-0.328-0.078-0.652-0.086-0.979-0.035c0.004,0.227,0.01,0.445,0.01,0.67
					c0.324,0.051,0.646,0.037,0.969-0.037l1.768-0.262v-0.074L293.42,87.486z"/>
				<path fill="#1785B0" d="M293.066,89.473c-0.277-0.066-0.553-0.102-0.828-0.066c-0.008,0.242-0.008,0.492-0.018,0.73
					c0.283,0.035,0.563,0.006,0.846-0.07l1.674-0.26v-0.074L293.066,89.473z"/>
				<path fill="#1785B0" d="M292.879,91.469c-0.242-0.049-0.479-0.049-0.721-0.033c-0.01,0.242-0.021,0.477-0.043,0.713
					c0.258,0,0.521-0.016,0.779-0.088l1.846-0.316v-0.076L292.879,91.469z"/>
				<path fill="#1785B0" d="M292.361,94.287c-0.209-0.035-0.422-0.012-0.633,0.01c-0.014,0.148-0.023,0.303-0.037,0.449
					c0.225,0.016,0.447,0.029,0.67-0.008l1.861-0.197v-0.053L292.361,94.287z"/>
			</g>
			<path fill="#1785B0" d="M267.311,91.895c-0.336-0.078-0.674-0.068-1.012-0.014c-0.002,0.211-0.004,0.422-0.01,0.633
				c0.342,0.049,0.68,0.051,1.021-0.023l1.877-0.26v-0.08L267.311,91.895z"/>
		</g>
		<g>
			<path fill="#1785B0" d="M243.102,4.412c0.334,0.336,0.332,0.877-0.002,1.213l-64.828,64.826
				c-0.334,0.332-0.877,0.336-1.211,0.002l-4.164-4.164c-0.334-0.334-0.334-0.879,0.002-1.213L237.727,0.25
				c0.334-0.334,0.879-0.332,1.213,0L243.102,4.412 M174.717,65.684l2.951,2.947L241.283,5.02l-2.951-2.949L174.717,65.684z"/>
			<path fill="#1785B0" d="M184.238,80.717c0.336,0.338,0.334,0.879,0.002,1.215l-8.902,8.902c-0.26,0.258-0.652,0.324-0.982,0.162
				c-0.328-0.156-0.52-0.51-0.475-0.879c0.021-0.195,0.531-4.898-4.246-9.672c-2.053-2.053-4.797-3.82-8.164-5.248
				c-2.93-1.244-5.303-2.764-7.053-4.512c-8.141-8.141-0.48-18.693-0.402-18.801c0.145-0.201,0.375-0.326,0.623-0.344
				c0.25-0.02,0.494,0.07,0.67,0.248L184.238,80.717 M154.844,53.75c-1.482,2.467-5.07,9.863,0.789,15.723
				c1.59,1.592,3.781,2.988,6.51,4.145c3.568,1.516,6.496,3.406,8.707,5.613c3.414,3.414,4.414,6.854,4.682,8.984l6.889-6.889
				L154.844,53.75"/>
			<path fill="#1785B0" d="M192.133,88.611c0.334,0.334,0.334,0.881,0,1.215l-8.902,8.9c-0.336,0.336-0.879,0.336-1.213,0
				l-4.453-4.451c-0.334-0.336-0.334-0.879,0-1.215l8.902-8.9c0.334-0.336,0.879-0.334,1.213,0L192.133,88.611 M179.383,93.67
				l3.238,3.238l7.689-7.693l-3.236-3.236L179.383,93.67z"/>
			<path fill="#1785B0" d="M152.766,65.146c-0.471-0.42-0.902-0.881-1.332-1.344c0.076-0.133,0.166-0.26,0.236-0.396
				c0.486,0.461,0.969,0.924,1.412,1.424l3.793,4.066l-0.041,0.041L152.766,65.146z"/>
			<path fill="#1785B0" d="M154.039,63.715c-1.053-0.939-2.047-1.949-3.006-2.986c0.141-0.156,0.285-0.311,0.416-0.477
				c1.047,0.973,2.057,1.979,3.012,3.043l5.393,5.762l-0.055,0.055L154.039,63.715z"/>
			<path fill="#1785B0" d="M154.838,61.709c-1.189-1.082-2.338-2.217-3.438-3.389c0.17-0.15,0.35-0.279,0.512-0.436
				c1.16,1.088,2.277,2.225,3.35,3.402l5.996,6.365l-0.053,0.053L154.838,61.709z"/>
			<path fill="#1785B0" d="M155.012,59.074c-1.016-0.922-2.004-1.863-2.949-2.854c0.152-0.191,0.324-0.373,0.461-0.572
				c1.012,0.961,1.977,1.965,2.908,3.008l5.66,6.023l-0.053,0.053L155.012,59.074z"/>
			<path fill="#1785B0" d="M155.25,56.5c-0.711-0.633-1.389-1.301-2.055-1.975c0.121-0.223,0.227-0.447,0.328-0.676
				c0.738,0.717,1.457,1.455,2.145,2.232l5.023,5.385l-0.055,0.055L155.25,56.5z"/>
			<path fill="#1785B0" d="M158.311,56.656c-1.482-1.352-2.891-2.773-4.248-4.248c0.063-0.234,0.08-0.477,0.125-0.713
				c1.592,1.439,3.121,2.936,4.566,4.518l6.777,7.168l-0.057,0.055L158.311,56.656z"/>
			<path fill="#1785B0" d="M179.967,92.35c-0.168-0.117-0.293-0.277-0.422-0.434c0.098-0.113,0.201-0.229,0.289-0.344
				c0.166,0.141,0.326,0.281,0.449,0.461l1.119,1.391l-0.043,0.041L179.967,92.35z"/>
			<path fill="#1785B0" d="M181.834,91.51c-0.373-0.26-0.689-0.592-0.967-0.947c0.146-0.15,0.295-0.301,0.436-0.457
				c0.359,0.285,0.684,0.605,0.953,0.982l1.596,1.971l-0.053,0.053L181.834,91.51z"/>
			<path fill="#1785B0" d="M183.359,90.232c-0.416-0.311-0.789-0.67-1.113-1.068c0.162-0.154,0.324-0.303,0.486-0.461
				c0.395,0.322,0.744,0.693,1.051,1.105l1.789,2.158l-0.051,0.053L183.359,90.232z"/>
			<path fill="#1785B0" d="M184.619,88.682c-0.359-0.262-0.688-0.545-0.977-0.879c0.166-0.178,0.342-0.355,0.5-0.535
				c0.34,0.291,0.639,0.627,0.896,0.994l1.684,2.051l-0.053,0.053L184.619,88.682z"/>
			<path fill="#1785B0" d="M185.779,87.027c-0.256-0.174-0.473-0.385-0.684-0.605c0.154-0.184,0.301-0.369,0.447-0.555
				c0.242,0.223,0.465,0.465,0.654,0.744l1.48,1.844l-0.053,0.055L185.779,87.027z"/>
			<path fill="#1785B0" d="M175.195,64.154c-0.262-0.191-0.479-0.436-0.689-0.676c0.176-0.109,0.359-0.24,0.541-0.365
				c0.205,0.191,0.408,0.385,0.576,0.613l1.742,2.111l-0.055,0.055L175.195,64.154z"/>
			<path fill="#1785B0" d="M176.807,62.676c-0.289-0.207-0.52-0.479-0.748-0.746c0.17-0.104,0.346-0.211,0.527-0.326
				c0.234,0.199,0.465,0.396,0.646,0.648l1.74,2.111l-0.053,0.053L176.807,62.676z"/>
			<path fill="#1785B0" d="M178.359,61.143c-0.295-0.215-0.525-0.488-0.752-0.764c0.154-0.117,0.309-0.244,0.469-0.363
				c0.252,0.217,0.508,0.426,0.709,0.701l1.742,2.113l-0.055,0.055L178.359,61.143z"/>
			<path fill="#1785B0" d="M180.1,59.799c-0.369-0.268-0.674-0.604-0.945-0.965c0.145-0.125,0.289-0.252,0.434-0.383
				c0.35,0.271,0.68,0.563,0.938,0.922l1.742,2.113l-0.055,0.055L180.1,59.799z"/>
			<path fill="#1785B0" d="M182.027,58.637c-0.539-0.357-0.957-0.83-1.205-1.469c0.053-0.055,0.109-0.107,0.162-0.16
				c0.639,0.252,1.113,0.668,1.469,1.205l1.33,1.701l-0.057,0.053L182.027,58.637z"/>
			<path fill="#1785B0" d="M183.453,56.98c-0.486-0.326-0.865-0.768-1.121-1.326c0.086-0.066,0.17-0.133,0.256-0.201
				c0.541,0.256,0.975,0.625,1.291,1.104l1.33,1.701l-0.055,0.053L183.453,56.98z"/>
			<path fill="#1785B0" d="M185.045,55.484c-0.502-0.35-0.889-0.809-1.188-1.355c0.094-0.086,0.189-0.158,0.281-0.242
				c0.535,0.293,0.988,0.676,1.334,1.17l1.508,1.885l-0.053,0.053L185.045,55.484z"/>
			<path fill="#1785B0" d="M186.543,53.895c-0.48-0.336-0.861-0.773-1.152-1.293c0.094-0.094,0.188-0.191,0.281-0.287
				c0.521,0.295,0.963,0.674,1.295,1.156l1.514,1.883l-0.055,0.053L186.543,53.895z"/>
			<path fill="#1785B0" d="M187.789,51.561c-0.262-0.189-0.479-0.436-0.689-0.678c0.176-0.109,0.359-0.238,0.541-0.363
				c0.205,0.191,0.41,0.383,0.576,0.613l1.742,2.111l-0.055,0.055L187.789,51.561z"/>
			<path fill="#1785B0" d="M189.4,50.082c-0.289-0.209-0.52-0.479-0.746-0.746c0.17-0.104,0.346-0.213,0.525-0.328
				c0.234,0.201,0.467,0.398,0.648,0.65l1.738,2.109l-0.053,0.057L189.4,50.082z"/>
			<path fill="#1785B0" d="M190.953,48.547c-0.297-0.211-0.523-0.486-0.752-0.762c0.154-0.117,0.311-0.244,0.469-0.363
				c0.252,0.215,0.508,0.428,0.709,0.699l1.742,2.115l-0.055,0.053L190.953,48.547z"/>
			<path fill="#1785B0" d="M192.693,47.205c-0.367-0.268-0.672-0.604-0.945-0.967c0.146-0.125,0.289-0.252,0.434-0.381
				c0.352,0.27,0.68,0.564,0.938,0.922l1.744,2.111l-0.057,0.055L192.693,47.205z"/>
			<path fill="#1785B0" d="M194.621,46.045c-0.539-0.359-0.957-0.832-1.207-1.473c0.057-0.055,0.109-0.105,0.166-0.16
				c0.637,0.254,1.111,0.672,1.467,1.207l1.33,1.701l-0.055,0.053L194.621,46.045z"/>
			<path fill="#1785B0" d="M196.049,44.389c-0.488-0.33-0.865-0.77-1.121-1.33c0.086-0.066,0.17-0.129,0.254-0.199
				c0.541,0.256,0.977,0.623,1.293,1.104l1.328,1.699l-0.055,0.055L196.049,44.389z"/>
			<path fill="#1785B0" d="M197.639,42.891c-0.5-0.352-0.889-0.809-1.188-1.357c0.094-0.084,0.189-0.158,0.281-0.242
				c0.539,0.293,0.988,0.678,1.334,1.172l1.51,1.883l-0.055,0.053L197.639,42.891z"/>
			<path fill="#1785B0" d="M199.137,41.301c-0.48-0.336-0.859-0.775-1.152-1.295c0.096-0.094,0.188-0.191,0.281-0.285
				c0.521,0.295,0.963,0.672,1.297,1.154l1.512,1.883l-0.055,0.055L199.137,41.301z"/>
			<path fill="#1785B0" d="M200.385,38.965c-0.264-0.191-0.479-0.436-0.691-0.676c0.176-0.107,0.361-0.238,0.543-0.363
				c0.203,0.191,0.408,0.383,0.576,0.611l1.742,2.111l-0.055,0.057L200.385,38.965z"/>
			<path fill="#1785B0" d="M201.996,37.49c-0.291-0.213-0.52-0.482-0.748-0.75c0.172-0.105,0.346-0.211,0.527-0.326
				c0.232,0.199,0.465,0.396,0.646,0.648l1.74,2.111l-0.055,0.057L201.996,37.49z"/>
			<path fill="#1785B0" d="M203.549,35.953c-0.295-0.215-0.525-0.488-0.752-0.764c0.154-0.117,0.309-0.242,0.467-0.363
				c0.252,0.217,0.51,0.43,0.709,0.701l1.742,2.113l-0.053,0.055L203.549,35.953z"/>
			<path fill="#1785B0" d="M205.289,34.609c-0.369-0.266-0.674-0.605-0.947-0.965c0.146-0.125,0.289-0.252,0.434-0.381
				c0.352,0.268,0.68,0.564,0.938,0.92l1.744,2.115l-0.055,0.053L205.289,34.609z"/>
			<path fill="#1785B0" d="M207.217,33.449c-0.539-0.359-0.957-0.832-1.207-1.475c0.055-0.051,0.109-0.102,0.164-0.158
				c0.637,0.254,1.111,0.672,1.469,1.209l1.328,1.699l-0.055,0.055L207.217,33.449z"/>
			<path fill="#1785B0" d="M208.645,31.793c-0.49-0.328-0.867-0.77-1.125-1.328c0.088-0.066,0.172-0.131,0.256-0.199
				c0.541,0.256,0.977,0.625,1.293,1.102l1.328,1.699l-0.053,0.055L208.645,31.793z"/>
			<path fill="#1785B0" d="M210.234,30.295c-0.502-0.35-0.891-0.809-1.189-1.355c0.094-0.086,0.189-0.158,0.281-0.244
				c0.537,0.295,0.99,0.68,1.334,1.172l1.508,1.885l-0.051,0.053L210.234,30.295z"/>
			<path fill="#1785B0" d="M211.73,28.707c-0.479-0.336-0.861-0.773-1.15-1.295c0.094-0.094,0.188-0.193,0.281-0.285
				c0.52,0.293,0.961,0.672,1.295,1.154l1.512,1.881l-0.055,0.055L211.73,28.707z"/>
			<path fill="#1785B0" d="M212.98,26.371c-0.264-0.191-0.48-0.434-0.693-0.674c0.178-0.111,0.361-0.242,0.543-0.367
				c0.205,0.191,0.408,0.387,0.576,0.613l1.742,2.113l-0.055,0.055L212.98,26.371z"/>
			<path fill="#1785B0" d="M214.59,24.893c-0.289-0.209-0.52-0.479-0.748-0.748c0.172-0.102,0.346-0.211,0.527-0.326
				c0.234,0.201,0.467,0.398,0.646,0.65l1.74,2.111l-0.053,0.055L214.59,24.893z"/>
			<path fill="#1785B0" d="M216.143,23.357c-0.295-0.213-0.523-0.486-0.752-0.762c0.154-0.115,0.311-0.244,0.467-0.365
				c0.254,0.217,0.512,0.432,0.711,0.703l1.742,2.113l-0.055,0.053L216.143,23.357z"/>
			<path fill="#1785B0" d="M217.883,22.016c-0.367-0.268-0.672-0.604-0.945-0.967c0.145-0.123,0.289-0.25,0.434-0.381
				c0.35,0.271,0.68,0.564,0.938,0.922l1.742,2.113l-0.055,0.053L217.883,22.016z"/>
			<path fill="#1785B0" d="M219.811,20.855c-0.539-0.359-0.957-0.83-1.207-1.473c0.057-0.055,0.109-0.104,0.164-0.16
				c0.639,0.254,1.113,0.672,1.467,1.207l1.33,1.701l-0.055,0.053L219.811,20.855z"/>
			<path fill="#1785B0" d="M221.236,19.197c-0.488-0.326-0.865-0.768-1.121-1.328c0.086-0.066,0.17-0.131,0.254-0.199
				c0.543,0.256,0.977,0.625,1.293,1.104l1.33,1.699l-0.055,0.057L221.236,19.197z"/>
			<path fill="#1785B0" d="M222.828,17.701c-0.5-0.35-0.891-0.807-1.188-1.355c0.094-0.086,0.189-0.16,0.281-0.242
				c0.537,0.293,0.988,0.676,1.334,1.17l1.508,1.883l-0.053,0.053L222.828,17.701z"/>
			<path fill="#1785B0" d="M224.326,16.111c-0.48-0.336-0.859-0.775-1.152-1.293c0.094-0.096,0.186-0.193,0.281-0.287
				c0.523,0.293,0.963,0.674,1.295,1.154l1.512,1.885l-0.053,0.053L224.326,16.111z"/>
			<path fill="#1785B0" d="M225.574,13.775c-0.264-0.191-0.48-0.434-0.691-0.674c0.174-0.111,0.361-0.242,0.543-0.365
				c0.203,0.191,0.406,0.385,0.576,0.611l1.742,2.115l-0.055,0.053L225.574,13.775z"/>
			<path fill="#1785B0" d="M227.184,12.301c-0.289-0.211-0.52-0.482-0.748-0.75c0.172-0.104,0.348-0.209,0.529-0.326
				c0.232,0.201,0.465,0.396,0.645,0.65l1.742,2.109l-0.055,0.057L227.184,12.301z"/>
			<path fill="#1785B0" d="M228.736,10.764c-0.293-0.215-0.523-0.486-0.752-0.762c0.154-0.117,0.311-0.244,0.469-0.363
				c0.252,0.215,0.51,0.43,0.709,0.699l1.742,2.113l-0.055,0.055L228.736,10.764z"/>
			<path fill="#1785B0" d="M230.479,9.42c-0.369-0.266-0.672-0.602-0.947-0.965c0.146-0.123,0.289-0.25,0.434-0.381
				c0.352,0.271,0.68,0.564,0.938,0.922l1.742,2.113l-0.055,0.053L230.479,9.42z"/>
			<path fill="#1785B0" d="M232.404,8.262c-0.537-0.357-0.955-0.832-1.207-1.471c0.057-0.055,0.111-0.105,0.164-0.16
				c0.639,0.252,1.113,0.668,1.469,1.207l1.33,1.699l-0.055,0.053L232.404,8.262z"/>
			<path fill="#1785B0" d="M233.832,6.607c-0.488-0.328-0.865-0.771-1.123-1.328c0.088-0.066,0.172-0.133,0.256-0.199
				c0.539,0.256,0.975,0.625,1.293,1.102l1.328,1.699l-0.055,0.055L233.832,6.607z"/>
			<path fill="#1785B0" d="M235.422,5.109c-0.5-0.35-0.889-0.809-1.186-1.357c0.092-0.084,0.186-0.156,0.279-0.242
				c0.537,0.295,0.988,0.678,1.334,1.172l1.508,1.885l-0.053,0.051L235.422,5.109z"/>
			<path fill="#1785B0" d="M236.92,3.518c-0.48-0.334-0.861-0.771-1.152-1.291c0.096-0.096,0.189-0.193,0.283-0.289
				c0.52,0.297,0.961,0.676,1.293,1.158l1.514,1.881l-0.055,0.057L236.92,3.518z"/>
		</g>
		<g>
			<path fill="#1785B0" d="M69.908,98.979h-0.012H22.662c-0.275,0-0.539-0.127-0.715-0.348c-0.176-0.219-0.236-0.504-0.176-0.777
				l3.693-15.697c0.096-0.412,0.467-0.705,0.889-0.705h39.928c0.42,0,0.791,0.293,0.887,0.709l3.588,15.559
				c0.041,0.105,0.066,0.223,0.066,0.346C70.822,98.568,70.412,98.979,69.908,98.979 M23.816,97.148H68.75l-3.197-13.869H27.078
				L23.816,97.148z"/>
			<path fill="#1785B0" d="M66.277,78.256H26.279c-0.502,0-0.912-0.408-0.912-0.912c0-12.105-3.176-32.418-24.453-32.418
				C0.412,44.926,0,44.516,0,44.014V32.086c0-0.508,0.412-0.916,0.914-0.916h121.012c0.506,0,0.916,0.408,0.916,0.916v11.928
				c0,0.502-0.41,0.912-0.916,0.912c-19.619,0-45.5,11.492-54.811,32.783C66.969,78.043,66.643,78.256,66.277,78.256 M27.189,76.43
				h38.494c9.676-21.328,35.416-32.977,55.328-33.322V32.998H1.828v10.113c8.531,0.227,15.064,3.641,19.43,10.154
				C25.025,58.885,27.066,66.879,27.189,76.43"/>
			<path fill="#1785B0" d="M121.963,41.455c-3.525-0.098-14.576-0.066-18.105,0.314v0.08c3.529,0.383,14.58,0.41,18.105,0.314
				V41.455z"/>
			<path fill="#1785B0" d="M121.963,34.426c-1.889,0.033-3.775,0.139-5.67,0.369v0.086c1.895,0.223,3.781,0.332,5.67,0.363V34.426z"
				/>
			<path fill="#1785B0" d="M121.963,36.813c-1.889,0.055-7.164,0.129-9.053,0.309v0.084c1.889,0.182,7.164,0.25,9.053,0.303V36.813z
				"/>
			<path fill="#1785B0" d="M121.963,39.141c-1.889,0.053-11.258,0.123-13.148,0.303v0.084c1.891,0.18,11.26,0.248,13.148,0.305
				V39.141z"/>
			<path fill="#1785B0" d="M9.244,34.504c-2.871-0.127-5.738-0.08-8.607,0.146c0.018,0.123,0.012,0.246,0.027,0.373
				c2.861,0.223,5.719,0.275,8.58,0.143l10.824-0.289v-0.082L9.244,34.504z"/>
			<path fill="#1785B0" d="M12.199,36.828C8.389,36.691,4.58,36.742,0.775,37c-0.004,0.104-0.023,0.213-0.029,0.324
				c3.816,0.252,7.635,0.303,11.453,0.174l13.783-0.295v-0.086L12.199,36.828z"/>
			<path fill="#1785B0" d="M12.199,39.152c-3.84-0.131-7.678-0.084-11.516,0.176c0.01,0.105,0.016,0.211,0.027,0.316
				c3.83,0.256,7.658,0.307,11.488,0.174l13.783-0.291v-0.084L12.199,39.152z"/>
			<path fill="#1785B0" d="M10.568,41.477c-3.281-0.129-6.557-0.076-9.842,0.162c-0.004,0.113-0.016,0.227-0.027,0.342
				c3.289,0.24,6.578,0.293,9.869,0.162l12.152-0.293v-0.08L10.568,41.477z"/>
			<path fill="#1785B0" d="M27.822,84.318c-0.938-0.055-1.875-0.023-2.809,0.012c-0.055,0.223-0.1,0.451-0.168,0.668
				c0.99,0.023,1.984,0.043,2.977-0.014l8.25-0.289v-0.084L27.822,84.318z"/>
			<path fill="#1785B0" d="M30.074,86.543c-1.881-0.086-3.762-0.074-5.643-0.016c-0.02,0.236-0.029,0.475-0.061,0.711
				c1.9,0.059,3.805,0.061,5.703-0.025l10.502-0.295V86.83L30.074,86.543z"/>
			<path fill="#1785B0" d="M30.074,88.77c-1.936-0.088-3.869-0.096-5.799-0.039c0.016,0.252,0.059,0.494,0.059,0.752
				c1.916,0.055,3.828,0.041,5.74-0.045l10.502-0.291v-0.084L30.074,88.77z"/>
			<path fill="#1785B0" d="M28.832,90.994c-1.535-0.076-3.066-0.113-4.6-0.076c-0.029,0.273-0.041,0.547-0.086,0.818
				c1.561,0.041,3.125,0.006,4.686-0.074l9.262-0.293v-0.082L28.832,90.994z"/>
			<path fill="#1785B0" d="M26.98,93.221c-1.064-0.061-2.131-0.063-3.195-0.061c-0.082,0.271-0.174,0.533-0.273,0.797
				c1.154,0.012,2.311,0,3.469-0.07l8.252-0.289v-0.084L26.98,93.221z"/>
			<path fill="#1785B0" d="M29.232,95.447c-2.135-0.102-4.268-0.088-6.402,0c-0.127,0.225-0.299,0.42-0.439,0.633
				c2.281,0.111,4.561,0.139,6.842,0.035l10.504-0.295v-0.086L29.232,95.447z"/>
			<path fill="#1785B0" d="M24.678,44.174l-10.414,0.277c-3.469,0.156-6.943,0.143-10.412-0.277V44.09
				c3.469-0.418,6.943-0.43,10.412-0.279l10.414,0.279V44.174z"/>
			<path fill="#1785B0" d="M19.24,46.139c-3.369-0.148-6.738-0.127-10.109,0.26c0.781,0.033,1.527,0.111,2.217,0.275
				c2.631,0.174,5.262,0.223,7.893,0.109l10.412-0.281v-0.08L19.24,46.139z"/>
			<path fill="#1785B0" d="M19.24,48.463c-1.375-0.061-2.746-0.066-4.121-0.041c0.277,0.211,0.504,0.467,0.752,0.707
				c1.123,0.004,2.244,0.029,3.369-0.023l10.412-0.279v-0.082L19.24,48.463z"/>
			<path fill="#1785B0" d="M20.209,50.787c-0.994-0.047-1.99-0.041-2.984-0.047c0.16,0.244,0.348,0.469,0.486,0.721
				c0.834,0,1.664,0,2.498-0.033l10.414-0.279v-0.08L20.209,50.787z"/>
			<path fill="#1785B0" d="M22.721,53.111c-1.229-0.057-2.461-0.035-3.689-0.016c0.18,0.219,0.322,0.455,0.477,0.684
				c1.074,0.01,2.143,0.02,3.213-0.025l10.412-0.281v-0.08L22.721,53.111z"/>
			<path fill="#1785B0" d="M24.68,55.434c-1.354-0.059-2.703-0.027-4.055,0c0.197,0.209,0.379,0.42,0.557,0.646
				c1.166,0.025,2.33,0.053,3.498-0.004l10.412-0.279v-0.082L24.68,55.434z"/>
			<path fill="#1785B0" d="M26.355,57.762c-1.365-0.061-2.727-0.027-4.094,0.008c0.1,0.205,0.188,0.416,0.277,0.627
				c1.271,0.027,2.543,0.061,3.816,0.006l10.412-0.279v-0.082L26.355,57.762z"/>
			<path fill="#1785B0" d="M28.297,60.084c-1.725-0.076-3.445-0.051-5.172,0.016c0.053,0.203,0.113,0.406,0.158,0.613
				c1.67,0.061,3.34,0.086,5.014,0.012l10.414-0.279v-0.08L28.297,60.084z"/>
			<path fill="#1785B0" d="M30.756,62.412c-2.414-0.139-4.832-0.096-7.244,0.199c0.002,0.082,0.018,0.16,0.018,0.242
				c2.412,0.291,4.816,0.334,7.227,0.197l8.188-0.279v-0.08L30.756,62.412z"/>
			<path fill="#1785B0" d="M30.756,64.734c-2.207-0.123-4.414-0.074-6.621,0.154c0.049,0.113,0.107,0.227,0.152,0.342
				c2.156,0.217,4.313,0.266,6.469,0.143l8.188-0.277v-0.084L30.756,64.734z"/>
			<path fill="#1785B0" d="M31.732,67.061c-2.291-0.113-4.584-0.063-6.871,0.127c0.023,0.133,0.074,0.26,0.096,0.395
				c2.258,0.182,4.514,0.234,6.775,0.121l9.162-0.283v-0.078L31.732,67.061z"/>
			<path fill="#1785B0" d="M31.732,69.385c-2.205-0.109-4.41-0.063-6.615,0.107c0.002,0.143-0.006,0.285-0.014,0.428
				c2.211,0.17,4.42,0.217,6.629,0.105l9.162-0.279v-0.084L31.732,69.385z"/>
			<path fill="#1785B0" d="M32.848,71.711c-2.576-0.117-5.154-0.066-7.729,0.117c0.033,0.137,0.068,0.275,0.102,0.41
				c2.543,0.178,5.086,0.225,7.627,0.113l10.281-0.279v-0.084L32.848,71.711z"/>
			<path fill="#1785B0" d="M32.848,74.035c-2.447-0.113-4.885-0.063-7.328,0.1c0.01,0.145,0.029,0.291,0.033,0.439
				c2.434,0.162,4.863,0.207,7.295,0.102l10.281-0.279v-0.084L32.848,74.035z"/>
			<path fill="#1785B0" d="M100.08,46.779l6.361-0.17c0.633-0.1,1.271-0.186,1.91-0.25l-8.271-0.225
				c-3.471-0.15-6.939-0.141-10.414,0.285v0.078C93.141,46.92,96.609,46.932,100.08,46.779"/>
			<path fill="#1785B0" d="M96.355,49.102l2.617-0.068c0.33-0.172,0.668-0.316,1.006-0.475l-3.623-0.098
				c-3.471-0.154-6.941-0.145-10.414,0.279v0.082C89.414,49.242,92.885,49.256,96.355,49.102"/>
			<path fill="#1785B0" d="M91.346,51.424l1.801-0.047c0.111-0.053,0.215-0.117,0.328-0.168c0.283-0.125,0.545-0.234,0.813-0.346
				l-2.941-0.078c-3.471-0.156-6.943-0.145-10.414,0.279v0.08C84.402,51.568,87.875,51.578,91.346,51.424"/>
			<path fill="#1785B0" d="M86.895,53.752l1.973-0.053c0.277-0.174,0.547-0.354,0.824-0.518l-2.797-0.074
				c-3.469-0.152-6.941-0.141-10.414,0.281v0.082C79.953,53.893,83.426,53.902,86.895,53.752"/>
			<path fill="#1785B0" d="M82.273,56.072l3.094-0.084c0.219-0.152,0.439-0.303,0.66-0.453l-3.754-0.102
				c-3.473-0.156-6.941-0.145-10.416,0.275v0.086C75.332,56.211,78.801,56.229,82.273,56.072"/>
			<path fill="#1785B0" d="M82.078,58.271l0.537-0.373l-5.213-0.141c-3.471-0.156-6.941-0.143-10.414,0.281v0.08
				c3.473,0.422,6.943,0.436,10.414,0.279L82.078,58.271z"/>
			<path fill="#1785B0" d="M79.477,60.24l-6.162-0.16c-4.217-0.154-8.434-0.143-12.648,0.279v0.084
				c4.215,0.422,8.432,0.436,12.648,0.279l5.764-0.146C79.203,60.453,79.346,60.354,79.477,60.24"/>
			<path fill="#1785B0" d="M76.93,62.654l-6.043-0.246c-2.734-0.156-5.463-0.143-8.191,0.277v0.084
				c2.729,0.42,5.457,0.434,8.191,0.279l5.912-0.244C76.84,62.754,76.889,62.707,76.93,62.654"/>
			<path fill="#1785B0" d="M75.51,64.891l-3.275-0.16c-2.73-0.152-5.459-0.141-8.186,0.279v0.082
				c2.727,0.422,5.455,0.434,8.186,0.279l3.107-0.156C75.385,65.104,75.459,65.002,75.51,64.891"/>
			<path fill="#1785B0" d="M120.656,44.004l-9.271-0.193c-4.596-0.15-9.188-0.139-13.779,0.283v0.08
				c4.592,0.42,9.184,0.434,13.779,0.285l8.666-0.182C120.248,44.18,120.451,44.088,120.656,44.004"/>
			<path fill="#1785B0" d="M66.359,84.318c-1.207,0.018-2.41,0.084-3.621,0.297v0.072c1.264,0.225,2.523,0.287,3.783,0.293
				L66.359,84.318z"/>
			<path fill="#1785B0" d="M64.541,88.416c0.965,0.195,1.93,0.27,2.896,0.299l-0.162-0.654c-0.91,0.035-1.824,0.102-2.734,0.283
				V88.416z"/>
			<path fill="#1785B0" d="M63.449,90.281c1.484,0.232,2.965,0.287,4.443,0.291l-0.162-0.664c-1.426,0.012-2.854,0.072-4.281,0.295
				V90.281z"/>
			<path fill="#1785B0" d="M68.346,92.414l-0.152-0.617c-1.816-0.076-3.637-0.047-5.451,0.273v0.072
				C64.609,92.475,66.475,92.498,68.346,92.414"/>
			<path fill="#1785B0" d="M69.102,95.496c-1.334,0.021-2.666,0.09-4,0.299v0.076c1.389,0.217,2.775,0.283,4.164,0.299
				L69.102,95.496z"/>
			<path fill="#1785B0" d="M68.646,93.645c-1.367-0.025-2.736,0.014-4.105,0.289v0.074c1.424,0.283,2.842,0.318,4.264,0.283
				L68.646,93.645z"/>
			<path fill="#1785B0" d="M66.818,86.189c-1.361,0-2.721,0.051-4.08,0.291v0.074c1.416,0.25,2.828,0.299,4.238,0.287L66.818,86.189
				z"/>
			<path fill="#1785B0" d="M68.66,72.029c-1.424,0.045-5.814,0.125-7.238,0.301v0.084c1.424,0.172,5.814,0.254,7.238,0.299V72.029z"
				/>
			<path fill="#1785B0" d="M67.447,74.051c-1.635,0.049-7.232,0.125-8.869,0.301v0.082c1.637,0.174,7.234,0.256,8.869,0.303V74.051z
				"/>
			<path fill="#1785B0" d="M69.996,69.32c-1.697,0.02-4.715,0.109-6.414,0.342v0.084c1.699,0.232,4.717,0.322,6.414,0.346V69.32z"/>
			<path fill="#1785B0" d="M72.461,67.047c-2.803-0.111-3.4-0.094-6.205,0.295v0.078c2.805,0.389,3.402,0.408,6.205,0.295V67.047z"
				/>
		</g>
	</g>
</g>
</svg>
